<svg width="23" height="25" fill="none" xmlns="http://www.w3.org/2000/svg"><g clip-path="url(#clip0)" fill="#909090"><path d="M22.663 13.473c-.186 0-.337.164-.337.366v4.943c0 .247-.184.448-.411.448h-1.499c-.219 0-.397.194-.397.432v2.351l-3.617-2.707a.375.375 0 00-.225-.076h-6.153c-.227 0-.412-.2-.412-.448v-2.96H10.9c.186 0 .337-.163.337-.365 0-.203-.15-.367-.337-.367H5.284a.318.318 0 00-.19.065l-2.655 1.987v-1.685c0-.203-.15-.367-.337-.367h-1.02c-.225 0-.408-.199-.408-.443V3.159c0-.245.183-.444.408-.444h2.305c.186 0 .337-.164.337-.366 0-.202-.151-.366-.337-.366H1.082C.485 1.983 0 2.51 0 3.159v11.488c0 .648.485 1.176 1.082 1.176h.683v2.016c0 .136.07.261.18.325a.315.315 0 00.348-.023l3.096-2.318h3.55v2.96c0 .65.486 1.18 1.085 1.18h6.068l3.978 2.978a.375.375 0 00.41.026.437.437 0 00.213-.382v-2.623h1.222c.598 0 1.085-.529 1.085-1.18V13.84c0-.202-.15-.366-.337-.366z"/><path d="M21.915 9.865h-2.719V3.159c0-.649-.485-1.176-1.082-1.176H4.965c-.186 0-.337.164-.337.366 0 .202.151.366.337.366h13.149c.225 0 .408.2.408.444v11.488c0 .244-.183.444-.408.444h-5.657c-.186 0-.337.164-.337.366 0 .202.151.366.337.366h5.657c.597 0 1.082-.528 1.082-1.176v-4.05h2.719c.227 0 .411.2.411.448v1.093c0 .202.151.366.337.366.186 0 .337-.164.337-.366v-1.093c0-.651-.487-1.18-1.085-1.18z"/><path d="M16.862 4.167H2.34c-.186 0-.337.164-.337.366 0 .202.151.366.337.366h14.522c.186 0 .337-.164.337-.366 0-.202-.15-.366-.337-.366zM16.862 8.55h-2.3c-.187 0-.337.164-.337.366 0 .202.15.366.337.366h2.3c.186 0 .337-.164.337-.366 0-.202-.15-.366-.337-.366zM2.34 8.55c-.186 0-.337.164-.337.366 0 .202.151.366.337.366h10.662c.186 0 .337-.164.337-.366 0-.202-.151-.366-.337-.366H2.34zM2.34 12.912c-.186 0-.337.164-.337.366 0 .202.151.366.337.366h2.3c.187 0 .338-.164.338-.366 0-.202-.151-.366-.337-.366h-2.3zM16.862 12.912H6.201c-.186 0-.337.164-.337.366 0 .202.15.366.337.366h10.661c.186 0 .337-.164.337-.366 0-.202-.15-.366-.337-.366zM16.862 10.714H2.34c-.186 0-.337.164-.337.367 0 .202.151.366.337.366h14.522c.186 0 .337-.164.337-.366 0-.203-.15-.367-.337-.367zM15.85 6.74c0-.202-.15-.366-.337-.366H2.339c-.187 0-.337.164-.337.366 0 .202.15.366.337.366h13.174c.186 0 .337-.164.337-.366z"/></g><defs><clipPath id="clip0"><path fill="#fff" d="M0 0h23v25H0z"/></clipPath></defs></svg>