<svg width="40" height="40" viewBox="0 0 40 40" fill="none" xmlns="http://www.w3.org/2000/svg">
<path d="M18.0834 18.5701C17.7568 18.2517 17.2301 18.2551 16.9051 18.5835C9.80169 25.8285 5.04169 31.4635 1.74005 38.8251C1.55169 39.2451 1.73841 39.7385 2.15841 39.9268C2.27005 39.9768 2.38669 40.0001 2.50005 40.0001C2.81669 40.0001 3.12169 39.8168 3.26169 39.5068C6.46169 32.3718 11.1233 26.8601 18.0967 19.7484C18.4184 19.4218 18.4117 18.8918 18.0834 18.5701Z" fill="#FAFF00"/>
<path d="M37.5 0C19.58 0 5 14.58 5 32.5C5 32.96 5.37336 33.3334 5.83336 33.3334C17.8034 33.3334 28.7717 26.7784 34.46 16.2284C34.5984 15.97 34.5916 15.6567 34.4416 15.4067C34.29 15.1551 34.0183 15.0001 33.725 15.0001H30.6384L36.1734 11.8367C36.35 11.7367 36.4834 11.5751 36.5484 11.3834C37.7334 7.935 38.3334 4.385 38.3334 0.833359C38.3334 0.373359 37.96 0 37.5 0ZM35.0717 10.5466L27.0867 15.1084C26.7584 15.2984 26.5984 15.6817 26.6951 16.0467C26.7917 16.4134 27.1217 16.6667 27.5001 16.6667H32.2917C26.8716 25.715 17.2334 31.3684 6.67836 31.655C7.11836 15.3234 20.3216 2.12 36.655 1.67836C36.57 4.66164 36.0384 7.64 35.0717 10.5466Z" fill="#FAFF00"/>
</svg>
