<svg width="35" height="31" viewBox="0 0 35 31" fill="none" xmlns="http://www.w3.org/2000/svg">
<path d="M5.0945 30.9089H2.61451L4.36817 29.1552C5.31372 28.2097 5.90418 26.9798 6.06293 25.6457C3.59554 24.0265 1.79127 21.8962 0.825448 19.4531C-0.13969 17.0119 -0.260974 14.3245 0.474744 11.6815C1.3575 8.51005 3.42796 5.61943 6.30461 3.54199C9.4306 1.28456 13.3221 0.0913086 17.5585 0.0913086C22.8952 0.0913086 27.3935 1.62459 30.5668 4.52527C33.4256 7.13853 35 10.6634 35 14.4508C35 16.2908 34.6253 18.0812 33.8865 19.7722C33.1219 21.522 32.0022 23.0801 30.5587 24.403C27.3811 27.3151 22.8856 28.8544 17.5584 28.8544C15.5808 28.8544 13.5172 28.5904 11.6748 28.1059C9.93088 29.8949 7.56772 30.9089 5.0945 30.9089ZM17.5585 2.14581C9.06388 2.14581 3.85153 7.21174 2.45399 12.2324C1.13335 16.9769 3.08013 21.4601 7.66168 24.2249L8.17359 24.5338L8.15784 25.1315C8.12661 26.3145 7.8446 27.4539 7.3398 28.4839C8.56901 28.068 9.6844 27.314 10.5578 26.2821L10.9922 25.7689L11.6363 25.9616C13.4437 26.5022 15.5469 26.7999 17.5585 26.7999C28.1304 26.7999 32.9455 20.3985 32.9455 14.4508C32.9455 11.2474 31.6084 8.26098 29.1806 6.0417C26.3924 3.49302 22.3735 2.14581 17.5585 2.14581Z" fill="black"/>
</svg>
